Jabberwock 2011 R5 XviD AC3-WDR


Title:


Jabberwock (2011)
Genres: Action | Adventure | Fantasy    
Year: 2011
Country: USA | Canada
Language: English
Subtitles: No
Runtime: 84  min
Director: Steven R. Monroe  
Writers: Raul Inglis , Rafael Jordan


Cast:


Tahmoh Penikett ... Francis
Michael Worth ... Alec
Kacey Barnfield ... Anabel
Raffaello Degruttola ... Cid
Ian Virgo ... Michael
Steven Waddington ... John
Hristo Mitzkov ... Stephen  


Plot:


Alec, a courageous but impetuous knight, returns to his home village having 
been summoned by his older brother to see their dying father.


Details:


Video
ID                                       : 0
Format                                   : MPEG-4 Visual
Format profile                           : Advanced Simple@L5
Format settings, BVOP                    : 2
Format settings, QPel                    : No
Format settings, GMC                     : No warppoints
Format settings, Matrix                  : Default (H.263)
Codec ID                                 : XVID
Codec ID/Hint                            : XviD
Duration                                 : 1h 23mn
Bit rate                                 : 1 364 Kbps
Width                                    : 720 pixels
Height                                   : 404 pixels
Display aspect ratio                     : 16:9
Frame rate                               : 25.000 fps
Color space                              : YUV
Chroma subsampling                       : 4:2:0
Bit depth                                : 8 bits
Scan type                                : Progressive
Compression mode                         : Lossy
Bits/(Pixel*Frame)                       : 0.188
Stream size                              : 818 MiB (75%)
Writing library                          : XviD 1.2.1 (UTC 2008-12-04)

Audio
ID                                       : 1
Format                                   : AC-3
Format/Info                              : Audio Coding 3
Mode extension                           : CM (complete main)
Codec ID                                 : 2000
Duration                                 : 1h 23mn
Bit rate mode                            : Constant
Bit rate                                 : 448 Kbps
Channel(s)                               : 6 channels
Channel positions                        : Front: L C R, Side: L R, LFE
Sampling rate                            : 48.0 KHz
Bit depth                                : 16 bits
Compression mode                         : Lossy
Delay relative to video                  : 40ms
Stream size                              : 268 MiB (25%)
Alignment                                : Split accross interleaves
Interleave, duration                     : 500 ms (12.50 video frames)
Interleave, preload duration             : 500 ms


IMDB:

 
http://www.imdb.com/title/tt1734203/ 


Poster:

 
http://i.imgur.com/OIWmY.jpg


Screenshots:

 
http://i.imgur.com/R5f7T.jpg


ENJOY!